<?xml version="1.0" standalone="no"?>
<!DOCTYPE svg PUBLIC "-//W3C//DTD SVG 20010904//EN"
 "http://www.w3.org/TR/2001/REC-SVG-20010904/DTD/svg10.dtd">
<svg version="1.0" xmlns="http://www.w3.org/2000/svg"
 width="500.000000pt" height="500.000000pt" viewBox="0 0 500.000000 500.000000"
 preserveAspectRatio="xMidYMid meet">

<g transform="translate(0.000000,500.000000) scale(0.100000,-0.100000)"
fill="#000000" stroke="none">
<path d="M2285 4129 c-115 -83 -232 -166 -260 -185 -27 -19 -96 -67 -152 -107
-56 -39 -150 -105 -207 -145 -58 -41 -109 -79 -115 -86 -10 -11 38 -71 607
-758 l72 -87 137 95 c135 93 137 94 162 78 14 -9 76 -52 138 -95 62 -44 116
-79 120 -79 13 0 89 82 230 250 161 191 360 426 425 501 26 30 48 60 48 66 0
5 -120 94 -267 198 -148 104 -286 201 -308 217 -115 84 -408 288 -414 287 -3
0 -100 -68 -216 -150z"/>
<path d="M1149 3327 c-112 -79 -233 -165 -269 -191 -36 -25 -92 -65 -125 -88
-33 -23 -83 -59 -112 -80 l-52 -38 181 -542 c99 -299 184 -546 187 -550 7 -8
928 295 942 309 4 4 -15 75 -42 156 -27 82 -47 153 -44 158 4 5 58 46 121 90
63 44 114 84 114 88 0 5 -17 28 -38 52 -21 24 -49 58 -62 75 -56 71 -306 372
-344 414 -56 62 -104 120 -176 213 -33 42 -64 77 -69 77 -4 0 -100 -65 -212
-143z"/>
<path d="M3634 3407 c-22 -24 -122 -142 -224 -262 -102 -120 -240 -283 -307
-363 -68 -79 -123 -148 -123 -153 0 -5 39 -38 87 -72 47 -34 97 -71 110 -82
l24 -20 -50 -147 c-72 -215 -71 -204 -19 -227 549 -239 857 -371 867 -371 8 0
411 1191 411 1216 0 6 -104 84 -232 175 -364 258 -495 349 -501 349 -3 0 -22
-19 -43 -43z"/>
<path d="M1500 1783 c-256 -86 -467 -157 -469 -159 -4 -4 276 -843 288 -863 8
-12 76 -15 413 -18 222 -2 456 -1 521 3 l117 7 0 454 0 453 -145 0 c-166 0
-148 -12 -190 120 -37 113 -56 160 -64 159 -3 0 -215 -70 -471 -156z"/>
<path d="M2974 1778 l-39 -113 -172 -3 -173 -2 0 -455 0 -454 88 -3 c151 -7
660 -7 839 -1 l173 6 121 364 c66 201 119 370 116 377 -3 6 -60 36 -128 66
-420 183 -766 330 -775 330 -7 0 -29 -51 -50 -112z"/>
</g>
</svg>
