<?xml version="1.0" standalone="no"?>
<!DOCTYPE svg PUBLIC "-//W3C//DTD SVG 20010904//EN"
 "http://www.w3.org/TR/2001/REC-SVG-20010904/DTD/svg10.dtd">
<svg version="1.0" xmlns="http://www.w3.org/2000/svg"
 width="536.000000pt" height="525.000000pt" viewBox="0 0 536.000000 525.000000"
 preserveAspectRatio="xMidYMid meet">
<metadata>
Created by potrace 1.16, written by Peter Selinger 2001-2019
</metadata>
<g transform="translate(0.000000,525.000000) scale(0.100000,-0.100000)"
fill="#000000" stroke="none">
<path d="M2800 4183 l0 -668 258 -152 c141 -83 262 -153 268 -155 12 -3 1154
652 1154 662 0 4 -1087 639 -1632 953 l-48 27 0 -667z"/>
<path d="M2515 4818 c-11 -6 -393 -225 -848 -486 l-828 -475 568 -323 c312
-178 571 -324 576 -324 5 0 132 70 283 156 l274 155 0 655 c0 360 -1 654 -2
654 -2 0 -12 -6 -23 -12z"/>
<path d="M403 3920 c-17 -10 -37 -28 -42 -39 -7 -12 -11 -104 -11 -240 l0
-221 45 0 45 0 0 260 c0 143 -1 260 -2 260 -2 0 -17 -9 -35 -20z"/>
<path d="M4208 3410 l-398 -230 -1152 0 -1152 0 -378 215 c-207 118 -380 215
-383 215 -3 0 -5 -97 -5 -215 l0 -215 -255 0 -255 0 0 -520 0 -520 255 0 255
0 0 -216 c0 -169 3 -215 13 -211 6 3 176 100 377 216 l365 211 1179 0 1178 0
368 -210 c203 -115 375 -213 384 -216 14 -6 16 16 16 210 l0 216 245 0 245 0
0 520 0 520 -245 0 -245 0 0 230 c0 127 -3 230 -7 230 -5 0 -187 -104 -405
-230z m-542 -532 l144 -83 0 -166 0 -166 -144 -82 c-130 -74 -147 -81 -168
-70 -13 6 -76 43 -141 81 l-117 69 2 171 3 170 135 79 c74 43 137 78 139 78 2
1 68 -36 147 -81z m-2430 43 c112 -51 173 -211 145 -376 -22 -122 -87 -212
-171 -235 -82 -23 -185 -5 -240 42 -70 59 -104 160 -98 293 6 138 55 225 153
274 53 27 155 27 211 2z m3058 9 c29 -11 31 -18 15 -73 -10 -37 -12 -38 -42
-30 -52 13 -123 7 -158 -13 -52 -30 -89 -111 -89 -193 1 -144 61 -214 180
-214 30 0 65 3 77 7 23 7 22 10 38 -68 4 -20 -1 -26 -27 -35 -47 -16 -167 -13
-223 6 -108 36 -175 148 -175 292 0 150 49 241 159 298 55 29 72 33 141 33 43
0 90 -4 104 -10z m-3714 -7 c1 -33 69 -461 69 -438 1 17 15 122 31 235 17 113
30 206 30 207 0 2 27 3 61 3 58 0 61 -1 56 -22 -3 -13 -31 -153 -63 -311 l-57
-288 -66 3 -66 3 -57 290 c-31 160 -57 298 -57 308 -1 14 8 17 59 17 33 0 60
-3 60 -7z m1020 -253 l0 -260 110 0 110 0 0 -50 0 -50 -170 0 -170 0 0 310 0
310 60 0 60 0 0 -260z m630 210 l0 -50 -105 0 -105 0 0 -75 0 -75 100 0 100 0
0 -50 0 -50 -100 0 -100 0 0 -85 0 -85 115 0 115 0 0 -50 0 -50 -175 0 -175 0
0 310 0 310 165 0 165 0 0 -50z m197 13 c9 -21 33 -82 53 -136 34 -89 38 -96
44 -70 4 15 26 76 49 135 l42 108 67 0 c38 0 68 -2 68 -5 0 -3 -40 -86 -90
-185 l-90 -180 0 -125 0 -125 -60 0 -60 0 0 123 c0 116 -2 125 -31 187 -17 36
-57 120 -89 188 l-59 122 70 0 70 0 16 -37z m503 -223 l0 -260 110 0 110 0 0
-50 0 -50 -170 0 -170 0 0 310 0 310 60 0 60 0 0 -260z m1592 130 l3 -129 80
129 80 130 73 0 c39 0 72 -2 72 -5 0 -2 -39 -60 -87 -127 -47 -68 -86 -128
-86 -134 0 -5 41 -86 91 -178 51 -92 92 -169 92 -171 0 -3 -31 -5 -69 -5 l-69
0 -67 128 c-37 70 -69 129 -71 131 -2 2 -12 -7 -23 -20 -18 -21 -20 -39 -21
-131 l0 -108 -60 0 -60 0 0 310 0 310 60 0 59 0 3 -130z"/>
<path d="M3425 2855 c-38 -24 -82 -49 -97 -56 -16 -6 -28 -14 -28 -18 0 -3 30
-23 66 -43 64 -37 65 -37 99 -21 l35 17 0 83 c0 46 -1 83 -2 82 -2 0 -34 -20
-73 -44z"/>
<path d="M3540 2820 c0 -77 1 -79 31 -101 l31 -22 37 22 c20 12 51 29 69 38
17 9 32 19 32 22 0 3 -45 32 -100 63 l-100 57 0 -79z"/>
<path d="M3280 2625 l0 -116 43 26 c23 14 52 31 65 37 17 9 22 20 22 52 0 28
-5 45 -17 52 -10 6 -39 23 -65 38 l-48 28 0 -117z"/>
<path d="M3693 2703 c-61 -36 -63 -39 -63 -78 0 -39 3 -41 65 -77 35 -21 65
-38 67 -38 2 0 5 52 6 115 2 63 0 115 -5 115 -4 0 -36 -17 -70 -37z"/>
<path d="M3365 2514 c-33 -20 -61 -37 -63 -39 -2 -2 132 -81 191 -112 4 -2 7
30 7 72 0 74 0 76 -32 95 -18 11 -35 20 -38 20 -3 -1 -32 -17 -65 -36z"/>
<path d="M3573 2530 c-33 -19 -33 -21 -33 -95 l0 -76 33 17 c17 9 63 35 100
57 l68 40 -63 38 c-35 21 -65 38 -68 39 -3 0 -20 -9 -37 -20z"/>
<path d="M1074 2821 c-47 -29 -69 -95 -69 -206 0 -71 5 -100 22 -137 35 -77
106 -100 162 -53 89 76 89 314 0 390 -36 30 -73 32 -115 6z"/>
<path d="M1429 1804 c-299 -172 -545 -317 -547 -322 -2 -6 382 -231 1525 -894
l133 -77 -2 637 -3 636 -150 89 c-82 49 -209 124 -281 167 l-132 78 -543 -314z"/>
<path d="M3080 1960 l-275 -157 -3 -647 c-1 -355 0 -646 2 -646 5 0 1678 959
1684 965 4 4 -1096 632 -1118 638 -8 3 -139 -66 -290 -153z"/>
<path d="M350 1596 l0 -305 28 -19 c15 -10 514 -301 1110 -647 962 -558 1086
-627 1115 -622 40 6 2193 1239 2225 1273 27 31 30 59 5 49 -10 -3 -496 -280
-1080 -616 -584 -335 -1069 -609 -1078 -609 -13 0 -2051 1175 -2197 1267 l-38
23 0 255 0 255 -45 0 -45 0 0 -304z"/>
</g>
</svg>
